<mxfile host="app.diagrams.net" modified="2020-12-05T15:19:37.005Z" agent="5.0 (Windows NT 10.0; Win64; x64) AppleWebKit/537.36 (KHTML, like Gecko) Chrome/86.0.4240.198 Safari/537.36" etag="HTgfDZQXciLp_WLB9LV1" version="13.10.9" type="github">
  <diagram id="ZVMBtj9T9zP3RlwJYzQr" name="Page-1">
    <mxGraphModel dx="3238" dy="588" grid="1" gridSize="10" guides="1" tooltips="1" connect="1" arrows="1" fold="1" page="1" pageScale="1" pageWidth="1100" pageHeight="1700" math="0" shadow="0">
      <root>
        <mxCell id="0" />
        <mxCell id="1" parent="0" />
        <mxCell id="8GoFMyYYeQIn7J4E9imh-3" style="edgeStyle=orthogonalEdgeStyle;rounded=0;orthogonalLoop=1;jettySize=auto;html=1;exitX=1;exitY=0.5;exitDx=0;exitDy=0;" parent="1" source="8GoFMyYYeQIn7J4E9imh-1" edge="1">
          <mxGeometry relative="1" as="geometry">
            <mxPoint x="310" y="135" as="targetPoint" />
          </mxGeometry>
        </mxCell>
        <mxCell id="8GoFMyYYeQIn7J4E9imh-1" value="" style="ellipse;fillColor=#000000;strokeColor=none;" parent="1" vertex="1">
          <mxGeometry x="190" y="120" width="30" height="30" as="geometry" />
        </mxCell>
        <mxCell id="8GoFMyYYeQIn7J4E9imh-6" style="edgeStyle=orthogonalEdgeStyle;rounded=0;orthogonalLoop=1;jettySize=auto;html=1;exitX=0.5;exitY=1;exitDx=0;exitDy=0;" parent="1" source="8GoFMyYYeQIn7J4E9imh-5" edge="1">
          <mxGeometry relative="1" as="geometry">
            <mxPoint x="380" y="220" as="targetPoint" />
          </mxGeometry>
        </mxCell>
        <mxCell id="3dJB9v4KwbA97QMCPWDC-6" style="edgeStyle=orthogonalEdgeStyle;rounded=0;orthogonalLoop=1;jettySize=auto;html=1;exitX=1;exitY=0.5;exitDx=0;exitDy=0;" parent="1" source="8GoFMyYYeQIn7J4E9imh-5" edge="1">
          <mxGeometry relative="1" as="geometry">
            <mxPoint x="530" y="135" as="targetPoint" />
          </mxGeometry>
        </mxCell>
        <mxCell id="8GoFMyYYeQIn7J4E9imh-5" value="Login" style="html=1;align=center;verticalAlign=top;rounded=1;absoluteArcSize=1;arcSize=10;dashed=0;" parent="1" vertex="1">
          <mxGeometry x="310" y="115" width="140" height="40" as="geometry" />
        </mxCell>
        <mxCell id="8GoFMyYYeQIn7J4E9imh-8" style="edgeStyle=orthogonalEdgeStyle;rounded=0;orthogonalLoop=1;jettySize=auto;html=1;exitX=0.5;exitY=1;exitDx=0;exitDy=0;" parent="1" source="8GoFMyYYeQIn7J4E9imh-7" edge="1">
          <mxGeometry relative="1" as="geometry">
            <mxPoint x="380" y="290" as="targetPoint" />
          </mxGeometry>
        </mxCell>
        <mxCell id="3dJB9v4KwbA97QMCPWDC-5" style="edgeStyle=orthogonalEdgeStyle;rounded=0;orthogonalLoop=1;jettySize=auto;html=1;exitX=1;exitY=0.5;exitDx=0;exitDy=0;" parent="1" source="8GoFMyYYeQIn7J4E9imh-7" edge="1">
          <mxGeometry relative="1" as="geometry">
            <mxPoint x="530" y="130" as="targetPoint" />
          </mxGeometry>
        </mxCell>
        <mxCell id="8GoFMyYYeQIn7J4E9imh-7" value="" style="rhombus;" parent="1" vertex="1">
          <mxGeometry x="365" y="220" width="30" height="30" as="geometry" />
        </mxCell>
        <mxCell id="8GoFMyYYeQIn7J4E9imh-12" style="edgeStyle=orthogonalEdgeStyle;rounded=0;orthogonalLoop=1;jettySize=auto;html=1;" parent="1" source="8GoFMyYYeQIn7J4E9imh-9" edge="1">
          <mxGeometry relative="1" as="geometry">
            <mxPoint x="380" y="390" as="targetPoint" />
          </mxGeometry>
        </mxCell>
        <mxCell id="8GoFMyYYeQIn7J4E9imh-9" value="Enter Location" style="html=1;align=center;verticalAlign=top;rounded=1;absoluteArcSize=1;arcSize=10;dashed=0;" parent="1" vertex="1">
          <mxGeometry x="310" y="290" width="140" height="50" as="geometry" />
        </mxCell>
        <mxCell id="3dJB9v4KwbA97QMCPWDC-8" style="edgeStyle=orthogonalEdgeStyle;rounded=0;orthogonalLoop=1;jettySize=auto;html=1;exitX=0.5;exitY=1;exitDx=0;exitDy=0;" parent="1" source="8GoFMyYYeQIn7J4E9imh-14" edge="1">
          <mxGeometry relative="1" as="geometry">
            <mxPoint x="380" y="500" as="targetPoint" />
            <Array as="points">
              <mxPoint x="380" y="470" />
              <mxPoint x="380" y="470" />
            </Array>
          </mxGeometry>
        </mxCell>
        <mxCell id="3dJB9v4KwbA97QMCPWDC-21" style="edgeStyle=orthogonalEdgeStyle;rounded=0;orthogonalLoop=1;jettySize=auto;html=1;exitX=1;exitY=0.5;exitDx=0;exitDy=0;" parent="1" source="8GoFMyYYeQIn7J4E9imh-14" edge="1">
          <mxGeometry relative="1" as="geometry">
            <mxPoint x="520" y="410" as="targetPoint" />
          </mxGeometry>
        </mxCell>
        <mxCell id="8GoFMyYYeQIn7J4E9imh-14" value="Search Restaurant" style="html=1;align=center;verticalAlign=top;rounded=1;absoluteArcSize=1;arcSize=10;dashed=0;" parent="1" vertex="1">
          <mxGeometry x="310" y="390" width="130" height="40" as="geometry" />
        </mxCell>
        <mxCell id="8GoFMyYYeQIn7J4E9imh-19" style="edgeStyle=orthogonalEdgeStyle;rounded=0;orthogonalLoop=1;jettySize=auto;html=1;exitX=0.5;exitY=1;exitDx=0;exitDy=0;" parent="1" edge="1">
          <mxGeometry relative="1" as="geometry">
            <mxPoint x="560" y="340" as="sourcePoint" />
            <mxPoint x="560" y="340" as="targetPoint" />
          </mxGeometry>
        </mxCell>
        <mxCell id="3dJB9v4KwbA97QMCPWDC-2" value="Invalid Credentials" style="text;html=1;align=center;verticalAlign=middle;resizable=0;points=[];autosize=1;" parent="1" vertex="1">
          <mxGeometry x="410" y="210" width="110" height="20" as="geometry" />
        </mxCell>
        <mxCell id="3dJB9v4KwbA97QMCPWDC-7" value="Valid Credentials" style="text;html=1;align=center;verticalAlign=middle;resizable=0;points=[];autosize=1;" parent="1" vertex="1">
          <mxGeometry x="395" y="250" width="110" height="20" as="geometry" />
        </mxCell>
        <mxCell id="3dJB9v4KwbA97QMCPWDC-12" style="edgeStyle=orthogonalEdgeStyle;rounded=0;orthogonalLoop=1;jettySize=auto;html=1;exitX=0.5;exitY=1;exitDx=0;exitDy=0;" parent="1" edge="1">
          <mxGeometry relative="1" as="geometry">
            <mxPoint x="380" y="520" as="sourcePoint" />
            <mxPoint x="380" y="520" as="targetPoint" />
          </mxGeometry>
        </mxCell>
        <mxCell id="3dJB9v4KwbA97QMCPWDC-18" style="edgeStyle=orthogonalEdgeStyle;rounded=0;orthogonalLoop=1;jettySize=auto;html=1;exitX=0.5;exitY=1;exitDx=0;exitDy=0;" parent="1" source="3dJB9v4KwbA97QMCPWDC-13" edge="1">
          <mxGeometry relative="1" as="geometry">
            <mxPoint x="520" y="410" as="targetPoint" />
          </mxGeometry>
        </mxCell>
        <mxCell id="3dJB9v4KwbA97QMCPWDC-22" style="edgeStyle=orthogonalEdgeStyle;rounded=0;orthogonalLoop=1;jettySize=auto;html=1;exitX=0.5;exitY=1;exitDx=0;exitDy=0;" parent="1" source="3dJB9v4KwbA97QMCPWDC-13" edge="1">
          <mxGeometry relative="1" as="geometry">
            <mxPoint x="530" y="650" as="targetPoint" />
            <Array as="points">
              <mxPoint x="380" y="650" />
            </Array>
          </mxGeometry>
        </mxCell>
        <mxCell id="3dJB9v4KwbA97QMCPWDC-13" value="" style="rhombus;" parent="1" vertex="1">
          <mxGeometry x="365" y="500" width="30" height="30" as="geometry" />
        </mxCell>
        <mxCell id="3dJB9v4KwbA97QMCPWDC-20" value="Invalid Resturant" style="text;html=1;align=center;verticalAlign=middle;resizable=0;points=[];autosize=1;" parent="1" vertex="1">
          <mxGeometry x="395" y="460" width="110" height="20" as="geometry" />
        </mxCell>
        <mxCell id="3dJB9v4KwbA97QMCPWDC-24" value="Valid Restaurant" style="text;html=1;align=center;verticalAlign=middle;resizable=0;points=[];autosize=1;" parent="1" vertex="1">
          <mxGeometry x="400" y="610" width="100" height="20" as="geometry" />
        </mxCell>
        <mxCell id="3dJB9v4KwbA97QMCPWDC-31" style="edgeStyle=orthogonalEdgeStyle;rounded=0;orthogonalLoop=1;jettySize=auto;html=1;" parent="1" source="3dJB9v4KwbA97QMCPWDC-30" edge="1">
          <mxGeometry relative="1" as="geometry">
            <mxPoint x="600" y="740" as="targetPoint" />
          </mxGeometry>
        </mxCell>
        <mxCell id="3dJB9v4KwbA97QMCPWDC-35" style="edgeStyle=orthogonalEdgeStyle;rounded=0;orthogonalLoop=1;jettySize=auto;html=1;exitX=1;exitY=0.5;exitDx=0;exitDy=0;" parent="1" source="3dJB9v4KwbA97QMCPWDC-30" edge="1">
          <mxGeometry relative="1" as="geometry">
            <mxPoint x="730" y="650" as="targetPoint" />
          </mxGeometry>
        </mxCell>
        <mxCell id="3dJB9v4KwbA97QMCPWDC-30" value="Get Menu" style="html=1;align=center;verticalAlign=top;rounded=1;absoluteArcSize=1;arcSize=10;dashed=0;" parent="1" vertex="1">
          <mxGeometry x="530" y="630" width="140" height="40" as="geometry" />
        </mxCell>
        <mxCell id="3dJB9v4KwbA97QMCPWDC-34" style="edgeStyle=orthogonalEdgeStyle;rounded=0;orthogonalLoop=1;jettySize=auto;html=1;exitX=1;exitY=0.5;exitDx=0;exitDy=0;" parent="1" source="3dJB9v4KwbA97QMCPWDC-32" edge="1">
          <mxGeometry relative="1" as="geometry">
            <mxPoint x="720" y="650" as="targetPoint" />
            <Array as="points">
              <mxPoint x="800" y="755" />
              <mxPoint x="800" y="650" />
            </Array>
          </mxGeometry>
        </mxCell>
        <mxCell id="3dJB9v4KwbA97QMCPWDC-40" style="edgeStyle=orthogonalEdgeStyle;rounded=0;orthogonalLoop=1;jettySize=auto;html=1;exitX=0.5;exitY=1;exitDx=0;exitDy=0;" parent="1" source="3dJB9v4KwbA97QMCPWDC-32" edge="1">
          <mxGeometry relative="1" as="geometry">
            <mxPoint x="600" y="830" as="targetPoint" />
          </mxGeometry>
        </mxCell>
        <mxCell id="3dJB9v4KwbA97QMCPWDC-32" value="" style="rhombus;" parent="1" vertex="1">
          <mxGeometry x="585" y="740" width="30" height="30" as="geometry" />
        </mxCell>
        <mxCell id="3dJB9v4KwbA97QMCPWDC-37" value="Dishes currently not avail" style="text;html=1;align=center;verticalAlign=middle;resizable=0;points=[];autosize=1;" parent="1" vertex="1">
          <mxGeometry x="620" y="720" width="150" height="20" as="geometry" />
        </mxCell>
        <mxCell id="3dJB9v4KwbA97QMCPWDC-39" value="Avaliable dishes" style="text;html=1;align=center;verticalAlign=middle;resizable=0;points=[];autosize=1;" parent="1" vertex="1">
          <mxGeometry x="620" y="780" width="100" height="20" as="geometry" />
        </mxCell>
        <mxCell id="3dJB9v4KwbA97QMCPWDC-42" style="edgeStyle=orthogonalEdgeStyle;rounded=0;orthogonalLoop=1;jettySize=auto;html=1;exitX=0;exitY=0.5;exitDx=0;exitDy=0;" parent="1" source="3dJB9v4KwbA97QMCPWDC-41" edge="1">
          <mxGeometry relative="1" as="geometry">
            <mxPoint x="460" y="850" as="targetPoint" />
          </mxGeometry>
        </mxCell>
        <mxCell id="3dJB9v4KwbA97QMCPWDC-41" value="Selected Dishes" style="html=1;align=center;verticalAlign=top;rounded=1;absoluteArcSize=1;arcSize=10;dashed=0;" parent="1" vertex="1">
          <mxGeometry x="530" y="830" width="140" height="40" as="geometry" />
        </mxCell>
        <mxCell id="3dJB9v4KwbA97QMCPWDC-44" style="edgeStyle=orthogonalEdgeStyle;rounded=0;orthogonalLoop=1;jettySize=auto;html=1;" parent="1" source="3dJB9v4KwbA97QMCPWDC-43" edge="1">
          <mxGeometry relative="1" as="geometry">
            <mxPoint x="260" y="850" as="targetPoint" />
          </mxGeometry>
        </mxCell>
        <mxCell id="3dJB9v4KwbA97QMCPWDC-43" value="Total Cost" style="html=1;align=center;verticalAlign=top;rounded=1;absoluteArcSize=1;arcSize=10;dashed=0;" parent="1" vertex="1">
          <mxGeometry x="320" y="830" width="140" height="40" as="geometry" />
        </mxCell>
        <mxCell id="3dJB9v4KwbA97QMCPWDC-48" style="edgeStyle=orthogonalEdgeStyle;rounded=0;orthogonalLoop=1;jettySize=auto;html=1;exitX=0;exitY=0.25;exitDx=0;exitDy=0;entryX=1;entryY=0.5;entryDx=0;entryDy=0;" parent="1" source="3dJB9v4KwbA97QMCPWDC-45" target="3dJB9v4KwbA97QMCPWDC-47" edge="1">
          <mxGeometry relative="1" as="geometry" />
        </mxCell>
        <mxCell id="3dJB9v4KwbA97QMCPWDC-45" value="Display" style="html=1;align=center;verticalAlign=top;rounded=1;absoluteArcSize=1;arcSize=10;dashed=0;" parent="1" vertex="1">
          <mxGeometry x="120" y="830" width="140" height="40" as="geometry" />
        </mxCell>
        <mxCell id="3dJB9v4KwbA97QMCPWDC-46" value="" style="ellipse;html=1;shape=endState;fillColor=#000000;strokeColor=#ff0000;" parent="1" vertex="1">
          <mxGeometry x="-1270" y="680" width="30" height="30" as="geometry" />
        </mxCell>
        <mxCell id="3dJB9v4KwbA97QMCPWDC-47" value="" style="ellipse;html=1;shape=endState;fillColor=#000000;strokeColor=#ff0000;" parent="1" vertex="1">
          <mxGeometry x="40" y="830" width="30" height="30" as="geometry" />
        </mxCell>
      </root>
    </mxGraphModel>
  </diagram>
</mxfile>
